<?xml version="1.0" standalone="no"?>
<!DOCTYPE svg PUBLIC "-//W3C//DTD SVG 20010904//EN"
 "http://www.w3.org/TR/2001/REC-SVG-20010904/DTD/svg10.dtd">
<svg version="1.0" xmlns="http://www.w3.org/2000/svg"
 width="3000.000000pt" height="1428.000000pt" viewBox="0 0 3000.000000 1428.000000"
 preserveAspectRatio="xMidYMid meet">
<metadata>
Created by potrace 1.16, written by Peter Selinger 2001-2019
</metadata>
<g transform="translate(0.000000,1428.000000) scale(0.100000,-0.100000)"
fill="#000000" stroke="none">
<path d="M18765 13780 c-243 -52 -475 -251 -567 -486 -44 -115 -60 -205 -61
-344 0 -117 22 -286 42 -318 5 -8 118 -22 337 -42 490 -45 745 -69 786 -75
l37 -5 188 260 c103 143 190 260 193 260 3 0 61 -235 129 -523 68 -287 127
-530 130 -539 4 -11 41 71 100 223 l94 239 31 -5 c17 -3 141 -16 276 -31 135
-14 271 -29 302 -33 l57 -8 31 69 c77 173 113 380 92 540 -26 206 -111 371
-264 512 -80 75 -213 146 -306 165 -171 35 -358 -10 -532 -129 -53 -37 -184
-165 -247 -243 l-30 -38 -42 76 c-69 129 -111 186 -201 275 -142 140 -270 200
-440 206 -52 2 -113 -1 -135 -6z"/>
<path d="M19531 12720 c-96 -132 -177 -240 -179 -240 -12 0 -979 103 -1069
114 l-101 12 25 -71 c134 -375 466 -780 815 -993 94 -58 217 -119 319 -158
l85 -33 73 15 c372 77 916 416 1167 728 65 81 167 236 160 244 -2 2 -145 16
-318 32 -224 20 -315 25 -320 17 -3 -6 -50 -126 -104 -266 -53 -141 -100 -260
-104 -264 -5 -5 -13 13 -19 40 -10 47 -249 1041 -254 1055 -1 5 -80 -100 -176
-232z"/>
<path d="M23045 11240 c-77 -16 -154 -51 -307 -143 -230 -139 -243 -141 -573
-122 -162 9 -222 -2 -340 -60 -128 -63 -220 -156 -285 -290 -60 -123 -82 -263
-60 -375 8 -42 6 -47 -26 -83 -97 -107 -144 -215 -151 -347 -8 -153 12 -251
136 -654 49 -156 63 -226 110 -521 l36 -230 25 3 c42 6 73 26 98 62 24 35 24
37 18 218 -3 101 -9 228 -12 283 l-7 99 60 63 c105 109 171 233 194 362 15 90
6 251 -20 340 -12 38 -21 88 -21 109 0 56 33 119 74 141 30 16 40 17 88 7 67
-15 125 -55 250 -169 130 -119 168 -138 278 -138 81 1 91 3 205 54 180 80 227
93 315 89 94 -4 164 -36 332 -149 196 -132 302 -171 473 -172 55 -1 125 5 155
12 91 22 194 77 261 139 172 158 226 364 150 572 -16 47 -30 81 -31 76 0 -5
-13 9 -28 30 -39 54 -115 119 -168 145 -25 11 -99 32 -167 45 -67 14 -141 34
-164 45 -57 28 -118 98 -182 209 -29 50 -71 112 -93 138 -85 98 -223 179 -353
207 -75 16 -204 18 -270 5z"/>
<path d="M15845 11184 c-350 -54 -648 -200 -880 -429 -149 -147 -246 -303
-318 -511 -53 -154 -53 -148 -9 -163 143 -50 528 -219 519 -227 -7 -7 -304
111 -445 177 -58 27 -109 46 -114 41 -4 -4 -9 -29 -10 -55 l-3 -48 289 -114
c159 -63 291 -115 293 -115 2 0 3 41 3 90 0 532 247 921 624 986 187 33 310
-9 506 -172 63 -52 138 -109 165 -125 136 -79 289 -96 402 -45 116 53 193 163
193 277 0 70 24 60 135 -53 234 -239 369 -525 419 -881 4 -34 3 -38 -12 -31
-97 42 -263 55 -367 29 -201 -51 -372 -222 -417 -414 -10 -46 -14 -52 -32 -46
-12 3 -46 11 -77 18 l-56 11 -33 73 c-18 40 -36 73 -41 73 -12 0 -12 -6 11
-85 24 -83 23 -75 7 -75 -8 0 -36 -11 -62 -25 -27 -13 -49 -23 -50 -22 -1 1
-6 29 -13 62 -39 200 -211 378 -417 430 -283 72 -592 -98 -679 -375 -69 -219
-20 -427 138 -585 115 -114 242 -168 396 -169 100 0 171 15 260 57 91 42 215
167 259 260 35 74 61 177 61 248 0 46 0 47 51 68 28 12 57 21 66 19 10 -2 37
-65 78 -183 34 -99 97 -271 139 -383 76 -203 85 -235 66 -247 -6 -4 -57 -13
-113 -21 -138 -19 -158 -24 -151 -36 11 -18 257 -5 288 15 32 21 46 70 33 117
-15 55 -144 409 -213 584 -35 88 -61 162 -59 164 2 3 30 -2 62 -9 l58 -14 6
-95 c14 -194 100 -346 259 -453 170 -115 429 -122 595 -16 88 56 134 100 185
176 45 68 91 181 89 222 0 9 -8 -11 -18 -44 -10 -33 -30 -85 -46 -115 -31 -62
-152 -187 -205 -214 -223 -113 -436 -98 -627 45 -155 116 -236 352 -189 553
45 191 194 344 391 401 80 24 258 17 330 -12 l50 -21 9 -103 c10 -110 15 -106
31 24 l6 57 46 -32 c94 -67 175 -189 207 -308 8 -31 15 -44 15 -30 1 40 -43
153 -82 211 -37 56 -100 120 -152 156 l-29 21 -1 173 c-1 139 -5 192 -22 264
-43 181 -120 349 -241 520 -188 266 -503 434 -912 484 -121 16 -535 12 -645
-5z m246 -1407 c230 -79 380 -282 380 -517 0 -320 -277 -574 -597 -546 -246
20 -447 205 -491 451 -48 268 113 532 376 616 85 27 246 25 332 -4z"/>
<path d="M15867 9540 c-54 -14 -108 -44 -141 -78 -43 -46 -26 -53 59 -26 103
33 201 32 301 -1 85 -29 94 -30 94 -12 0 21 -61 74 -112 97 -54 24 -147 33
-201 20z"/>
<path d="M15919 9371 c-47 -15 -66 -30 -84 -67 -46 -97 54 -194 157 -151 46
19 71 57 71 106 0 50 -25 86 -74 105 -22 9 -40 16 -42 15 -1 0 -14 -4 -28 -8z"/>
<path d="M12012 11179 c-377 -49 -700 -321 -815 -685 -153 -484 88 -1010 553
-1209 316 -135 672 -100 955 96 80 55 227 203 259 260 24 42 12 31 -47 -47
-116 -153 -301 -279 -504 -341 -81 -25 -101 -27 -268 -27 -168 0 -186 2 -268
27 -368 114 -630 405 -697 777 -6 34 -11 110 -11 168 0 191 51 365 152 523
149 230 389 392 653 438 136 25 352 9 481 -34 197 -66 397 -219 507 -389 44
-69 57 -84 35 -41 -28 55 -86 129 -154 199 -217 219 -525 325 -831 285z"/>
<path d="M7960 10801 c-408 -90 -738 -421 -821 -824 -10 -49 -24 -97 -31 -107
-7 -10 -34 -47 -60 -82 -100 -136 -181 -324 -213 -489 -8 -46 -20 -171 -25
-278 -15 -290 -26 -337 -126 -553 -78 -169 -103 -253 -111 -379 -11 -174 17
-320 147 -775 103 -361 166 -520 270 -677 164 -248 382 -378 698 -415 l73 -8
-3 64 -3 65 -70 23 c-145 49 -268 128 -381 245 -215 224 -313 498 -342 954
-14 229 -5 1081 13 1210 2 17 7 75 10 130 28 478 299 937 614 1043 l62 21 10
-27 c53 -147 152 -220 431 -318 266 -93 364 -156 426 -272 38 -71 50 -128 53
-243 3 -123 17 -214 43 -273 l23 -51 -70 23 c-76 26 -196 31 -265 12 -74 -20
-124 -65 -93 -84 5 -3 56 -9 113 -12 56 -3 159 -15 227 -26 69 -11 137 -17
152 -14 18 3 32 0 41 -11 7 -9 67 -57 133 -107 155 -116 220 -183 259 -265 29
-62 31 -73 31 -176 0 -94 -6 -133 -39 -265 -22 -89 -41 -191 -43 -240 -17
-281 129 -551 368 -681 l80 -44 -5 -130 c-3 -71 -9 -194 -12 -272 -4 -79 -4
-143 -2 -143 3 0 52 20 108 45 56 25 103 45 104 43 0 -2 11 -18 24 -35 l22
-33 -35 -70 c-38 -76 -85 -207 -85 -238 0 -15 73 -62 320 -206 312 -183 327
-191 637 -318 175 -71 381 -154 458 -185 177 -69 291 -129 398 -209 152 -114
305 -296 383 -456 l28 -57 37 57 c21 31 64 89 97 128 47 55 58 74 50 87 -17
32 -38 112 -64 247 -48 257 -80 344 -157 427 -78 85 -168 116 -407 138 -272
26 -339 52 -466 179 -54 54 -116 134 -189 244 -60 90 -128 186 -152 212 -51
57 -156 130 -228 158 -38 15 -49 25 -47 39 15 88 13 111 -8 161 -13 29 -36 63
-51 77 l-29 24 75 77 c42 42 87 96 101 119 35 61 78 182 142 405 54 191 55
198 56 325 0 153 -14 199 -100 333 -128 197 -136 243 -80 460 38 147 46 242
26 313 -18 64 -88 159 -215 290 -177 183 -178 184 -191 399 -10 165 -12 179
-39 229 -37 67 -90 122 -167 171 -69 45 -117 64 -318 127 -80 24 -181 63 -225
86 -86 45 -142 96 -348 319 -160 174 -318 270 -537 328 -121 32 -369 38 -490
11z"/>
<path d="M12020 10560 l0 -230 -230 0 -230 0 0 -130 0 -130 230 0 230 0 0
-230 0 -230 130 0 130 0 0 230 0 230 230 0 230 0 0 130 0 130 -230 0 -230 0 0
230 0 230 -130 0 -130 0 0 -230z"/>
<path d="M15883 10009 c-117 -20 -244 -90 -251 -137 -5 -34 20 -37 142 -18 61
10 176 22 255 27 165 10 181 13 181 40 0 56 -200 111 -327 88z"/>
<path d="M17089 10006 c-89 -32 -146 -93 -108 -117 12 -8 143 -13 357 -14 61
0 67 2 70 21 4 30 -69 91 -132 109 -60 18 -138 19 -187 1z"/>
<path d="M14564 9648 c9 -151 33 -374 51 -478 8 -47 19 -150 24 -230 16 -232
41 -295 117 -292 84 3 195 86 244 182 91 178 203 586 185 670 -4 20 -16 32
-48 44 -127 52 -560 216 -569 216 -8 0 -9 -34 -4 -112z"/>
<path d="M22522 9609 c-96 -18 -212 -90 -212 -131 0 -23 10 -23 162 1 68 11
170 22 228 25 58 2 113 8 123 11 40 16 6 52 -76 81 -50 18 -164 25 -225 13z"/>
<path d="M17085 9542 c-78 -27 -152 -89 -131 -110 4 -3 39 5 79 18 101 34 216
33 312 -3 89 -34 103 -22 44 37 -72 72 -195 96 -304 58z"/>
<path d="M23610 9535 c-52 -16 -106 -66 -97 -89 5 -13 25 -16 110 -16 57 0
145 -3 195 -6 91 -7 92 -7 92 15 0 33 -54 78 -113 96 -62 18 -127 18 -187 0z"/>
<path d="M17153 9369 c-81 -23 -112 -132 -54 -189 16 -16 40 -32 55 -36 70
-17 144 32 152 102 10 84 -68 147 -153 123z"/>
<path d="M23660 9197 c-77 -22 -157 -83 -136 -104 2 -3 35 5 73 18 88 31 193
31 277 0 33 -11 63 -21 68 -21 16 0 8 27 -15 48 -58 55 -184 82 -267 59z"/>
<path d="M22527 9180 c-71 -18 -147 -68 -147 -97 0 -16 -4 -17 66 8 99 34 175
35 272 4 46 -14 86 -24 89 -21 13 13 -30 56 -79 80 -60 29 -144 40 -201 26z"/>
<path d="M23176 9153 c15 -65 130 -397 213 -616 50 -130 91 -243 91 -251 0
-25 -25 -35 -130 -50 -57 -9 -108 -16 -114 -17 -6 0 -2 -4 9 -9 11 -4 65 -6
120 -3 186 9 191 35 68 363 -129 345 -242 610 -258 610 -3 0 -3 -12 1 -27z"/>
<path d="M23678 9073 c-103 -64 -20 -227 94 -184 46 17 68 50 68 102 0 40 -4
51 -31 73 -36 31 -90 34 -131 9z"/>
<path d="M22553 9045 c-40 -17 -65 -54 -66 -101 -1 -52 46 -94 107 -94 36 0
50 6 75 31 81 80 -10 209 -116 164z"/>
<path d="M7272 9003 c-49 -17 -104 -68 -100 -92 3 -14 24 -16 188 -12 218 4
235 10 178 64 -60 56 -172 73 -266 40z"/>
<path d="M14381 8995 c-62 -53 -89 -193 -57 -299 28 -92 102 -166 166 -166 28
0 80 28 80 42 0 9 -3 9 -12 0 -20 -20 -92 -15 -122 9 -47 37 -79 114 -84 205
-4 72 -1 89 20 136 19 41 33 58 58 68 31 13 34 12 56 -14 21 -23 24 -24 24 -8
0 52 -79 69 -129 27z"/>
<path d="M7233 8664 c-45 -16 -103 -64 -103 -84 0 -13 0 -13 115 19 83 22 142
20 233 -10 35 -12 66 -18 70 -15 11 12 -14 40 -62 70 -41 25 -59 30 -129 33
-56 2 -95 -2 -124 -13z"/>
<path d="M8390 8651 c-72 -22 -148 -80 -135 -102 3 -4 39 4 80 17 94 30 175
31 256 3 86 -28 104 -22 58 22 -58 56 -179 84 -259 60z"/>
<path d="M7837 8548 c-107 -241 -287 -717 -287 -762 0 -43 24 -74 63 -81 54
-9 217 -12 222 -5 3 5 -34 13 -83 20 -120 17 -144 23 -155 42 -8 11 14 79 87
269 83 215 216 593 216 613 0 3 -4 6 -8 6 -5 0 -29 -46 -55 -102z"/>
<path d="M7281 8504 c-13 -9 -30 -32 -38 -51 -12 -31 -12 -38 4 -71 24 -50 76
-75 124 -62 52 15 74 43 74 97 0 38 -5 49 -33 74 -38 34 -93 39 -131 13z"/>
<path d="M8403 8501 c-34 -21 -49 -62 -38 -110 17 -76 119 -98 182 -39 17 16
23 32 23 62 -1 88 -89 134 -167 87z"/>
<path d="M16236 8375 c-3 -9 -6 -40 -6 -68 0 -98 74 -208 171 -255 83 -40 186
-49 242 -20 28 14 13 24 -55 37 -165 32 -268 123 -312 275 -12 43 -30 56 -40
31z"/>
<path d="M22875 8120 c-16 -26 -5 -115 20 -167 52 -106 182 -172 304 -154 56
8 64 27 14 35 -159 28 -250 99 -298 231 -22 59 -30 71 -40 55z"/>
<path d="M8167 7613 c-2 -5 -12 -31 -21 -60 -34 -104 -141 -191 -268 -217 -32
-6 -59 -16 -59 -21 0 -19 81 -29 144 -17 119 22 215 119 231 231 8 57 -10 113
-27 84z"/>
<path d="M15802 7200 c47 -82 150 -202 230 -265 192 -152 418 -225 694 -225
l124 0 0 28 c0 16 -3 63 -6 104 l-7 75 -111 6 c-268 16 -604 120 -852 266 -47
28 -88 51 -90 51 -3 0 6 -18 18 -40z"/>
<path d="M14700 6618 c0 -20 9 -241 20 -490 l21 -453 645 -1660 c356 -913 647
-1665 648 -1672 1 -7 5 -16 9 -19 4 -4 7 -68 7 -143 0 -79 4 -130 9 -121 5 8
59 218 120 467 l112 451 225 539 c124 296 248 580 275 631 112 211 257 428
437 652 59 73 111 138 116 145 6 8 -10 60 -44 146 -29 74 -53 140 -54 147 -1
9 79 41 236 95 130 45 238 86 239 90 2 11 -579 967 -644 1059 -45 64 -115 128
-141 128 -6 0 3 -8 19 -19 17 -10 51 -40 75 -67 59 -67 670 -1087 656 -1096
-6 -4 -114 -42 -241 -84 -126 -42 -231 -78 -233 -79 -1 -1 24 -70 56 -153 l59
-150 -60 -74 c-163 -198 -353 -473 -460 -663 -69 -123 -101 -195 -307 -698
-90 -218 -165 -396 -167 -393 -2 2 93 390 211 862 l214 859 56 670 c39 468 56
720 56 835 0 90 -4 160 -8 155 -5 -6 -14 -35 -21 -65 -33 -152 -130 -315 -246
-413 -183 -154 -439 -226 -765 -214 -213 7 -375 45 -535 125 -249 124 -456
357 -566 636 -27 67 -28 69 -29 34z"/>
<path d="M14253 6363 l-363 -276 0 -338 0 -339 186 0 c172 0 185 -1 180 -17
-20 -67 -136 -546 -135 -560 0 -10 105 -155 234 -323 l234 -305 1 -351 0 -351
-37 -7 c-21 -3 -54 -6 -73 -6 -85 -2 -176 -58 -232 -144 -21 -33 -38 -64 -38
-69 0 -6 18 17 39 50 45 70 103 114 181 137 107 32 182 12 273 -74 108 -101
150 -217 149 -415 -1 -132 -23 -240 -68 -332 -42 -88 -121 -142 -233 -163 -51
-9 -71 -8 -116 5 -98 28 -185 116 -225 227 -11 29 -19 43 -20 32 0 -39 69
-160 116 -204 78 -71 118 -84 254 -77 64 4 135 13 158 21 132 47 203 150 237
343 41 237 -5 450 -125 573 -54 56 -137 100 -187 100 l-33 0 0 298 c0 163 -3
314 -7 336 -4 26 -2 37 5 35 6 -2 131 -161 278 -354 548 -718 986 -1285 991
-1285 3 0 1 6 -4 13 -5 6 -140 185 -299 397 -160 212 -548 724 -863 1139
l-573 754 75 298 74 299 -186 2 -186 3 -3 322 -2 322 355 276 c304 236 368
288 353 285 -2 -1 -166 -125 -365 -277z m466 -2906 c61 -28 134 -105 170 -179
77 -157 78 -423 2 -600 -25 -58 -92 -133 -143 -159 -59 -30 -65 -22 -15 22 93
81 139 227 140 439 1 138 -14 213 -60 306 -32 66 -105 145 -162 173 -22 12
-41 23 -41 26 0 9 66 -8 109 -28z"/>
<path d="M8640 6205 c-437 -40 -812 -75 -833 -78 -49 -7 -105 -50 -124 -96
-12 -28 -14 -57 -9 -131 4 -52 10 -104 12 -116 4 -17 -20 -43 -130 -138 l-135
-118 -5 -52 c-23 -224 -156 -3736 -156 -4126 l0 -86 -179 -159 c-205 -184
-204 -167 -11 -179 l105 -7 30 30 c34 36 45 39 45 11 0 -11 3 -20 8 -20 146
-7 277 -22 311 -36 29 -11 112 -82 263 -224 l222 -208 205 -46 c113 -26 206
-48 208 -49 1 -1 12 -84 26 -185 22 -169 29 -203 42 -191 2 3 -7 94 -21 203
-13 109 -23 200 -22 202 2 1 458 71 1013 154 556 83 1091 163 1190 178 99 14
173 28 165 30 -12 2 -1115 -154 -1628 -231 -67 -10 -95 -11 -98 -3 -2 6 -26
400 -55 876 l-51 866 308 1599 c307 1590 309 1601 309 1730 0 142 -12 198 -67
313 -25 53 -29 72 -24 110 3 26 8 82 12 124 6 73 5 78 -19 102 -21 21 -35 26
-69 25 -24 -1 -401 -34 -838 -74z"/>
<path d="M23538 6205 c39 -43 72 -82 72 -86 0 -3 -31 -4 -70 -1 -55 4 -70 2
-70 -9 0 -8 7 -196 15 -419 8 -223 15 -440 15 -482 l0 -78 -52 24 c-29 13
-168 78 -308 144 -140 66 -520 244 -845 396 -365 171 -598 286 -612 301 -28
31 -43 85 -43 153 0 45 -3 52 -20 52 -21 0 -27 15 -10 25 5 3 15 16 21 28 8
15 -2 9 -28 -16 -39 -37 -45 -39 -149 -53 -60 -8 -156 -23 -214 -35 -102 -21
-350 -85 -358 -94 -2 -2 99 -54 224 -115 126 -62 223 -114 216 -117 -8 -3
-116 47 -240 110 l-227 116 -130 -50 c-180 -69 -428 -193 -565 -284 -158 -106
-275 -202 -410 -342 -134 -137 -201 -218 -299 -362 l-70 -103 48 -62 c185
-235 326 -535 376 -796 16 -89 39 -366 76 -961 l23 -357 155 -41 c295 -78 561
-155 561 -162 0 -4 -24 -2 -52 5 -80 20 -620 156 -642 163 -18 5 -18 -1 -11
-133 4 -77 9 -141 10 -142 2 -2 151 -32 330 -67 180 -35 328 -65 329 -67 2 -1
-1 -46 -5 -98 -87 -989 -117 -1344 -113 -1349 2 -2 239 33 526 78 288 45 584
91 658 102 74 12 214 34 310 49 96 16 423 68 725 115 l550 87 230 98 c257 109
527 217 625 249 97 31 177 40 487 52 268 11 283 11 320 -7 30 -15 40 -27 48
-59 l10 -40 71 9 72 8 15 77 c82 398 99 477 105 483 7 6 634 118 664 118 9 0
18 -12 22 -31 6 -30 8 -31 42 -24 57 10 422 112 499 138 46 16 69 29 67 38 -3
14 -49 134 -665 1719 -178 459 -347 880 -375 935 -210 418 -553 728 -982 888
-203 75 -468 140 -709 172 l-125 16 -62 67 c-34 37 -77 76 -95 86 -27 16 -20
5 39 -59z m162 -297 c16 -111 39 -376 50 -578 11 -196 28 -722 23 -729 -5 -7
-311 142 -1355 662 -577 286 -1048 524 -1048 529 0 4 5 8 10 8 12 0 272 -127
1225 -600 667 -331 1055 -521 1112 -546 l33 -14 -5 127 c-3 71 -7 227 -10 348
-3 121 -8 258 -11 305 -10 151 -34 464 -40 515 -4 28 -4 47 0 44 4 -4 11 -36
16 -71z m-2225 -2689 c109 -6 351 -10 568 -7 l377 4 0 -73 0 -73 -630 0 -630
0 0 86 0 87 63 -6 c34 -4 148 -12 252 -18z m-391 -464 c187 -49 300 -263 282
-536 -19 -299 -136 -453 -346 -453 -59 -1 -84 4 -118 22 -69 37 -119 89 -157
164 -46 93 -45 102 8 73 28 -15 67 -25 121 -29 92 -8 149 -29 176 -64 16 -20
20 -21 20 -7 0 27 -58 74 -101 81 l-38 6 43 42 c23 23 56 69 72 102 26 53 29
69 29 159 0 78 -4 108 -19 135 -21 40 -65 90 -79 90 -5 0 6 -17 25 -38 45 -49
62 -113 56 -205 -6 -86 -31 -148 -84 -207 -43 -47 -87 -70 -134 -70 -133 0
-241 236 -185 402 19 54 78 114 131 133 29 11 33 14 16 15 -13 0 -32 -5 -44
-11 -31 -17 -33 -4 -5 44 49 83 127 138 221 157 23 4 43 8 46 9 3 1 32 -6 64
-14z m144 -10 c67 -31 143 -109 177 -181 92 -193 65 -547 -51 -682 -36 -42
-98 -84 -144 -97 -19 -5 -16 0 17 24 112 85 173 282 160 516 -12 204 -93 354
-232 428 -30 16 -30 16 -5 17 14 0 49 -11 78 -25z m5087 -54 c-17 -15 -1012
-331 -1044 -331 -74 0 174 84 794 270 232 69 267 78 250 61z"/>
<path d="M17354 6188 c10 -7 52 -39 92 -71 220 -175 320 -403 400 -917 23
-150 24 -152 18 -61 -11 192 -84 524 -144 657 -68 151 -213 316 -331 377 -30
15 -45 22 -35 15z"/>
<path d="M9906 5760 c35 -236 45 -317 54 -478 14 -235 2 -529 -36 -857 -23
-202 -8 -179 -130 -201 -58 -10 -110 -21 -115 -25 -6 -3 -3 -20 6 -43 45 -107
59 -205 59 -401 0 -159 -4 -207 -22 -294 -66 -301 -199 -578 -479 -996 -62
-93 -102 -156 -88 -140 14 17 72 96 128 178 259 374 381 625 453 933 26 110
28 134 28 324 0 189 -2 212 -26 300 -14 52 -29 102 -32 110 -5 13 13 19 103
35 l110 19 6 35 c75 472 70 1177 -10 1481 -8 30 -12 39 -9 20z"/>
<path d="M7168 5403 c-174 -380 -278 -734 -278 -942 l0 -88 75 -59 c41 -32 71
-61 67 -65 -4 -3 -37 -19 -75 -34 -52 -22 -69 -34 -74 -53 -11 -44 5 -573 22
-717 33 -282 92 -547 170 -753 34 -93 126 -285 132 -278 2 1 -19 50 -46 107
-118 249 -194 551 -237 934 -19 180 -31 673 -16 701 6 11 46 34 91 53 45 18
81 36 81 40 -1 3 -39 35 -85 71 l-84 65 -1 84 c0 170 97 521 239 861 65 155
76 199 19 73z"/>
<path d="M17680 5014 c-184 -49 -327 -176 -432 -381 -52 -100 -114 -265 -269
-710 -111 -320 -291 -875 -353 -1088 -159 -547 -119 -840 139 -1015 28 -18 52
-36 55 -39 3 -3 21 -13 40 -22 19 -9 67 -42 105 -74 88 -72 133 -95 185 -95
49 0 84 17 124 59 24 25 30 42 34 88 3 49 0 64 -20 93 -13 19 -39 45 -58 58
-51 35 -126 27 -222 -25 -121 -65 -129 -66 -185 -31 -131 82 -220 209 -244
351 -23 141 8 374 87 642 114 388 495 1520 531 1578 4 7 8 19 10 27 4 27 63
163 95 220 180 320 491 428 763 265 126 -76 217 -198 250 -336 10 -43 15 -116
15 -219 l0 -155 -34 62 c-64 120 -160 210 -294 277 -177 89 -440 87 -624 -5
-69 -34 -173 -108 -164 -116 3 -3 20 7 37 21 52 44 183 105 272 126 241 58
486 -9 657 -180 53 -53 86 -97 114 -152 l39 -78 -7 -687 c-3 -379 -9 -764 -13
-857 -6 -166 -6 -168 14 -158 18 10 20 25 26 159 4 81 10 542 13 1023 6 790 5
882 -10 944 -47 199 -196 356 -403 425 -74 25 -191 27 -273 5z"/>
<path d="M11205 4986 c-199 -77 -373 -206 -495 -368 -80 -106 -117 -180 -146
-297 -24 -94 -50 -324 -42 -372 5 -28 11 13 27 178 25 250 102 413 280 592
112 111 244 197 411 267 72 30 43 30 -35 0z"/>
<path d="M12265 4621 c156 -16 300 -58 446 -131 298 -150 579 -444 644 -673
l15 -52 -5 44 c-15 114 -126 291 -276 436 -240 233 -527 370 -794 380 -102 3
-104 3 -30 -4z"/>
<path d="M11741 4103 c-107 -525 -298 -1727 -336 -2106 -42 -425 -71 -1250
-60 -1705 4 -169 11 -292 17 -292 5 0 6 126 2 328 -9 453 13 1138 51 1597 29
340 193 1419 311 2044 19 101 33 185 31 188 -2 2 -9 -23 -16 -54z"/>
<path d="M6437 3963 c-4 -15 -18 -82 -32 -148 -190 -876 -191 -1821 -4 -2698
18 -81 34 -146 36 -143 2 2 -9 73 -26 157 -172 882 -171 1795 4 2677 20 96 34
177 31 179 -2 2 -6 -9 -9 -24z"/>
<path d="M14535 3312 c-16 -9 -64 -18 -105 -22 l-75 -5 52 -18 c66 -23 107
-69 129 -144 54 -185 -85 -416 -233 -388 -47 8 -116 73 -141 133 -82 190 -24
365 136 408 26 7 37 13 25 13 -41 2 -114 -30 -144 -62 -50 -52 -70 -109 -71
-190 0 -85 14 -143 50 -212 42 -78 100 -115 181 -115 87 0 149 -19 187 -56 36
-36 42 -35 20 4 -18 33 -66 62 -103 62 l-32 0 53 53 c72 71 99 142 99 257 1
101 -24 163 -82 210 l-36 30 29 0 c29 0 106 37 106 52 0 11 -10 9 -45 -10z"/>
<path d="M9745 3186 c-13 -13 -29 -43 -35 -66 -15 -57 -10 -857 6 -884 11 -19
13 -18 38 7 26 26 26 28 26 176 l0 149 173 -5 c94 -3 217 -2 272 3 91 8 76 9
-170 14 -216 4 -261 7 -225 15 l45 11 3 254 c3 271 0 310 -24 335 -24 23 -81
19 -109 -9z"/>
<path d="M13362 3050 c-67 -645 -145 -1618 -161 -1989 l-6 -154 -130 -2 c-141
-2 -204 -18 -311 -80 -76 -44 -203 -179 -246 -260 -47 -91 -59 -139 -15 -59
103 187 243 308 422 364 52 17 98 23 180 24 l110 2 13 174 c38 520 68 906 113
1455 27 336 48 619 47 630 -2 11 -9 -36 -16 -105z"/>
<path d="M10646 2790 c18 -172 325 -1951 332 -1920 5 26 -318 1934 -333 1965
-3 6 -2 -15 1 -45z"/>
<path d="M18751 2390 c-110 -42 -326 -151 -434 -219 -77 -49 -150 -125 -210
-217 -44 -68 -111 -194 -103 -194 2 0 29 42 60 94 71 119 154 224 209 263 102
73 366 213 517 274 125 51 95 50 -39 -1z"/>
<path d="M19185 2249 c-116 -44 -290 -129 -375 -184 -83 -54 -265 -231 -293
-285 l-18 -35 33 40 c155 188 325 306 623 435 66 28 122 54 124 56 10 9 -18 1
-94 -27z"/>
<path d="M16030 1943 c-3 -182 -7 -333 -10 -335 -3 -2 -237 6 -520 18 -283 12
-538 23 -565 23 l-51 1 -12 -72 c-33 -201 -72 -472 -69 -482 2 -6 23 111 47
259 24 149 46 273 49 276 3 4 125 1 271 -7 297 -15 1857 -83 2600 -114 585
-23 647 -27 727 -45 178 -41 261 -128 341 -355 37 -106 79 -281 96 -403 8 -50
14 -76 15 -57 3 94 -61 379 -118 527 -64 164 -152 258 -275 293 -25 7 -44 16
-41 19 3 6 -717 45 -1050 57 -82 3 -416 16 -742 30 -325 13 -612 24 -637 24
l-46 0 -2 338 -3 337 -5 -332z"/>
<path d="M18700 1481 c8 -6 29 -11 47 -11 61 0 179 -31 253 -66 59 -28 92 -53
160 -122 93 -94 146 -182 186 -307 26 -79 33 -58 8 26 -66 223 -248 411 -451
463 -77 20 -225 32 -203 17z"/>
<path d="M12378 1271 c-41 -14 -83 -41 -98 -64 -10 -17 -7 -17 18 5 50 42 94
51 206 45 232 -13 492 -133 639 -297 26 -29 47 -48 47 -43 0 19 -123 144 -185
189 -84 59 -211 117 -315 144 -92 24 -267 35 -312 21z"/>
<path d="M13250 887 c3 -3 199 -62 435 -132 821 -242 1600 -480 2192 -671 144
-46 277 -84 295 -83 38 1 69 -9 -472 162 -600 191 -1292 400 -1856 562 -519
149 -604 173 -594 162z"/>
<path d="M2410 775 c19 -7 114 -42 210 -78 96 -35 498 -184 893 -331 395 -146
721 -266 725 -266 4 0 38 43 76 95 80 109 119 135 205 135 47 0 57 -4 88 -35
34 -34 35 -38 31 -93 -2 -37 -16 -82 -36 -126 -18 -37 -32 -70 -32 -72 0 -2
26 -4 58 -4 l57 0 80 81 c110 111 134 122 219 98 77 -21 106 -82 71 -149 l-16
-30 958 1 958 0 -105 51 c-58 28 -355 175 -660 326 -305 151 -602 297 -660
325 l-105 50 -1320 18 c-1636 22 -1742 22 -1695 4z"/>
<path d="M24986 393 c-26 -35 -113 -89 -259 -161 l-125 -62 -503 9 -504 9
-259 -91 -259 -92 533 -3 c531 -2 534 -2 579 20 44 21 49 21 178 10 l133 -12
167 119 c153 109 176 122 257 145 49 14 90 27 92 28 1 2 -1 26 -4 55 l-7 51
-19 -25z"/>
</g>
</svg>
